<?xml version="1.0" encoding="UTF-8"?>
<svg xmlns="http://www.w3.org/2000/svg" xmlns:xlink="http://www.w3.org/1999/xlink" width="16px" height="16px" viewBox="0 0 16 16" version="1.1">
<g id="surface1">
<path style=" stroke:none;fill-rule:nonzero;fill:rgb(98.823529%,30.588236%,57.647061%);fill-opacity:1;" d="M 3 3.5 C 3 3.101562 3.15625 2.71875 3.4375 2.4375 C 3.71875 2.15625 4.101562 2 4.5 2 L 4.5 3.5 Z M 3 3.5 "/>
<path style=" stroke:none;fill-rule:nonzero;fill:rgb(36.078432%,33.725491%,100%);fill-opacity:1;" d="M 4.5 14.5 C 4.304688 14.5 4.109375 14.460938 3.925781 14.386719 C 3.742188 14.308594 3.578125 14.199219 3.4375 14.0625 C 3.300781 13.921875 3.191406 13.757812 3.113281 13.574219 C 3.039062 13.390625 3 13.195312 3 13 L 4.5 13 Z M 4.5 14.5 "/>
<path style=" stroke:none;fill-rule:nonzero;fill:rgb(98.823529%,30.588236%,57.647061%);fill-opacity:1;" d="M 3 3.484375 L 4.5 3.484375 L 4.5 5.984375 L 3 5.984375 Z M 3 3.484375 "/>
<path style=" stroke:none;fill-rule:nonzero;fill:rgb(36.078432%,33.725491%,100%);fill-opacity:1;" d="M 3 10.5 L 4.5 10.5 L 4.5 13 L 3 13 Z M 3 10.5 "/>
<path style=" stroke:none;fill-rule:nonzero;fill:rgb(98.823529%,30.588236%,57.647061%);fill-opacity:1;" d="M 4.5 2 L 7 2 L 7 3.5 L 4.5 3.5 Z M 4.5 2 "/>
<path style=" stroke:none;fill-rule:nonzero;fill:rgb(36.078432%,33.725491%,100%);fill-opacity:1;" d="M 4.5 13 L 8 13 L 8 14.5 L 4.5 14.5 Z M 4.5 13 "/>
<path style=" stroke:none;fill-rule:nonzero;fill:rgb(98.823529%,30.588236%,57.647061%);fill-opacity:1;" d="M 4.5 6 C 4.5 5.585938 4.164062 5.25 3.75 5.25 C 3.335938 5.25 3 5.585938 3 6 C 3 6.414062 3.335938 6.75 3.75 6.75 C 4.164062 6.75 4.5 6.414062 4.5 6 Z M 4.5 6 "/>
<path style=" stroke:none;fill-rule:nonzero;fill:rgb(36.078432%,33.725491%,100%);fill-opacity:1;" d="M 8.5 6 C 8.5 5.171875 7.828125 4.5 7 4.5 C 6.171875 4.5 5.5 5.171875 5.5 6 C 5.5 6.828125 6.171875 7.5 7 7.5 C 7.828125 7.5 8.5 6.828125 8.5 6 Z M 8.5 6 "/>
<path style=" stroke:none;fill-rule:nonzero;fill:rgb(98.823529%,30.588236%,57.647061%);fill-opacity:1;" d="M 8.5 10.5 C 8.5 9.671875 7.828125 9 7 9 C 6.171875 9 5.5 9.671875 5.5 10.5 C 5.5 11.328125 6.171875 12 7 12 C 7.828125 12 8.5 11.328125 8.5 10.5 Z M 8.5 10.5 "/>
<path style=" stroke:none;fill-rule:nonzero;fill:rgb(98.823529%,30.588236%,57.647061%);fill-opacity:1;" d="M 8.769531 7.769531 L 9.828125 8.828125 L 7.558594 11.09375 L 6.5 10.035156 Z M 8.769531 7.769531 "/>
<path style=" stroke:none;fill-rule:nonzero;fill:rgb(98.823529%,30.588236%,57.647061%);fill-opacity:1;" d="M 9.828125 8.828125 C 10.386719 8.269531 10.769531 7.554688 10.921875 6.78125 C 11.078125 6.003906 11 5.199219 10.695312 4.46875 C 10.394531 3.738281 9.878906 3.113281 9.222656 2.675781 C 8.566406 2.234375 7.792969 2 7 2 L 7 3.5 C 7.496094 3.5 7.976562 3.648438 8.390625 3.921875 C 8.800781 4.195312 9.121094 4.585938 9.308594 5.042969 C 9.5 5.5 9.546875 6.003906 9.453125 6.488281 C 9.355469 6.972656 9.117188 7.417969 8.769531 7.769531 Z M 9.828125 8.828125 "/>
<path style=" stroke:none;fill-rule:nonzero;fill:rgb(36.078432%,33.725491%,100%);fill-opacity:1;" d="M 4.171875 7.675781 L 6.160156 5.6875 L 7.222656 6.746094 L 5.230469 8.738281 Z M 4.171875 7.675781 "/>
<path style=" stroke:none;fill-rule:nonzero;fill:rgb(36.078432%,33.725491%,100%);fill-opacity:1;" d="M 4.171875 7.671875 C 3.800781 8.042969 3.503906 8.484375 3.304688 8.96875 C 3.101562 9.453125 3 9.976562 3 10.5 L 4.5 10.5 C 4.5 10.171875 4.566406 9.847656 4.691406 9.542969 C 4.816406 9.238281 5 8.964844 5.230469 8.730469 Z M 4.171875 7.671875 "/>
<path style=" stroke:none;fill-rule:nonzero;fill:rgb(36.078432%,33.725491%,100%);fill-opacity:1;" d="M 8 14.5 C 8.613281 14.5 9.222656 14.359375 9.773438 14.085938 C 10.324219 13.8125 10.804688 13.417969 11.179688 12.929688 C 11.550781 12.441406 11.808594 11.871094 11.925781 11.269531 C 12.042969 10.664062 12.019531 10.042969 11.859375 9.449219 L 10.414062 9.84375 C 10.511719 10.214844 10.527344 10.601562 10.453125 10.980469 C 10.378906 11.359375 10.21875 11.710938 9.984375 12.019531 C 9.753906 12.324219 9.453125 12.570312 9.109375 12.742188 C 8.761719 12.910156 8.382812 13 8 13 Z M 8 14.5 "/>
<path style=" stroke:none;fill-rule:nonzero;fill:rgb(36.078432%,33.725491%,100%);fill-opacity:1;" d="M 11.863281 9.464844 C 11.757812 9.066406 11.34375 8.828125 10.945312 8.933594 C 10.546875 9.042969 10.308594 9.453125 10.414062 9.851562 C 10.523438 10.253906 10.933594 10.492188 11.332031 10.382812 C 11.734375 10.277344 11.972656 9.863281 11.863281 9.464844 Z M 11.863281 9.464844 "/>
</g>
</svg>
